<mxfile host="app.diagrams.net" modified="2023-06-04T17:21:49.366Z" agent="Mozilla/5.0 (Windows NT 10.0; Win64; x64) AppleWebKit/537.36 (KHTML, like Gecko) Chrome/113.0.0.0 Safari/537.36" etag="QjYH6ahAfr4z5NNGXrQx" version="21.2.3" type="github">
  <diagram name="Copy of Page-1" id="tr4ZWwLuBK-8qQTziciz">
    <mxGraphModel dx="1290" dy="573" grid="1" gridSize="10" guides="1" tooltips="1" connect="1" arrows="1" fold="1" page="1" pageScale="1" pageWidth="850" pageHeight="1100" math="0" shadow="0">
      <root>
        <mxCell id="aQcuIbAOPBQ3XKsu57En-0" />
        <mxCell id="aQcuIbAOPBQ3XKsu57En-1" parent="aQcuIbAOPBQ3XKsu57En-0" />
        <mxCell id="aQcuIbAOPBQ3XKsu57En-2" value="" style="endArrow=none;html=1;rounded=0;" parent="aQcuIbAOPBQ3XKsu57En-1" target="aQcuIbAOPBQ3XKsu57En-4" edge="1">
          <mxGeometry width="50" height="50" relative="1" as="geometry">
            <mxPoint x="1310" y="390" as="sourcePoint" />
            <mxPoint x="1380" y="380" as="targetPoint" />
          </mxGeometry>
        </mxCell>
        <mxCell id="aQcuIbAOPBQ3XKsu57En-3" value="Books" style="rounded=0;whiteSpace=wrap;html=1;" parent="aQcuIbAOPBQ3XKsu57En-1" vertex="1">
          <mxGeometry x="1190" y="370" width="120" height="60" as="geometry" />
        </mxCell>
        <mxCell id="aQcuIbAOPBQ3XKsu57En-4" value="summary" style="ellipse;whiteSpace=wrap;html=1;" parent="aQcuIbAOPBQ3XKsu57En-1" vertex="1">
          <mxGeometry x="1380" y="340" width="100" height="40" as="geometry" />
        </mxCell>
        <mxCell id="aQcuIbAOPBQ3XKsu57En-5" value="Availables copies" style="ellipse;whiteSpace=wrap;html=1;" parent="aQcuIbAOPBQ3XKsu57En-1" vertex="1">
          <mxGeometry x="1380" y="390" width="100" height="40" as="geometry" />
        </mxCell>
        <mxCell id="aQcuIbAOPBQ3XKsu57En-6" value="" style="endArrow=none;html=1;rounded=0;entryX=0.022;entryY=0.62;entryDx=0;entryDy=0;entryPerimeter=0;" parent="aQcuIbAOPBQ3XKsu57En-1" target="aQcuIbAOPBQ3XKsu57En-5" edge="1">
          <mxGeometry width="50" height="50" relative="1" as="geometry">
            <mxPoint x="1310" y="410" as="sourcePoint" />
            <mxPoint x="1380" y="440" as="targetPoint" />
          </mxGeometry>
        </mxCell>
        <mxCell id="aQcuIbAOPBQ3XKsu57En-7" value="Language" style="ellipse;whiteSpace=wrap;html=1;" parent="aQcuIbAOPBQ3XKsu57En-1" vertex="1">
          <mxGeometry x="1380" y="440" width="100" height="40" as="geometry" />
        </mxCell>
        <mxCell id="aQcuIbAOPBQ3XKsu57En-8" value="" style="endArrow=none;html=1;rounded=0;entryX=0.014;entryY=0.6;entryDx=0;entryDy=0;entryPerimeter=0;exitX=1.005;exitY=0.92;exitDx=0;exitDy=0;exitPerimeter=0;" parent="aQcuIbAOPBQ3XKsu57En-1" source="aQcuIbAOPBQ3XKsu57En-3" target="aQcuIbAOPBQ3XKsu57En-7" edge="1">
          <mxGeometry width="50" height="50" relative="1" as="geometry">
            <mxPoint x="1300" y="500" as="sourcePoint" />
            <mxPoint x="1350" y="450" as="targetPoint" />
          </mxGeometry>
        </mxCell>
        <mxCell id="aQcuIbAOPBQ3XKsu57En-9" value="KeyWords" style="ellipse;whiteSpace=wrap;html=1;" parent="aQcuIbAOPBQ3XKsu57En-1" vertex="1">
          <mxGeometry x="1380" y="490" width="100" height="40" as="geometry" />
        </mxCell>
        <mxCell id="aQcuIbAOPBQ3XKsu57En-10" value="" style="endArrow=none;html=1;rounded=0;entryX=-0.002;entryY=0.6;entryDx=0;entryDy=0;entryPerimeter=0;exitX=0.908;exitY=0.993;exitDx=0;exitDy=0;exitPerimeter=0;" parent="aQcuIbAOPBQ3XKsu57En-1" source="aQcuIbAOPBQ3XKsu57En-3" target="aQcuIbAOPBQ3XKsu57En-9" edge="1">
          <mxGeometry width="50" height="50" relative="1" as="geometry">
            <mxPoint x="1270" y="530" as="sourcePoint" />
            <mxPoint x="1320" y="480" as="targetPoint" />
          </mxGeometry>
        </mxCell>
        <mxCell id="aQcuIbAOPBQ3XKsu57En-11" value="Image" style="ellipse;whiteSpace=wrap;html=1;" parent="aQcuIbAOPBQ3XKsu57En-1" vertex="1">
          <mxGeometry x="1280" y="510" width="90" height="40" as="geometry" />
        </mxCell>
        <mxCell id="aQcuIbAOPBQ3XKsu57En-12" value="" style="endArrow=none;html=1;rounded=0;entryX=0.662;entryY=1.02;entryDx=0;entryDy=0;entryPerimeter=0;exitX=0.5;exitY=0;exitDx=0;exitDy=0;" parent="aQcuIbAOPBQ3XKsu57En-1" source="aQcuIbAOPBQ3XKsu57En-11" target="aQcuIbAOPBQ3XKsu57En-3" edge="1">
          <mxGeometry width="50" height="50" relative="1" as="geometry">
            <mxPoint x="1210" y="490" as="sourcePoint" />
            <mxPoint x="1260" y="440" as="targetPoint" />
          </mxGeometry>
        </mxCell>
        <mxCell id="aQcuIbAOPBQ3XKsu57En-13" value="Publisher" style="ellipse;whiteSpace=wrap;html=1;" parent="aQcuIbAOPBQ3XKsu57En-1" vertex="1">
          <mxGeometry x="1390" y="540" width="100" height="40" as="geometry" />
        </mxCell>
        <mxCell id="aQcuIbAOPBQ3XKsu57En-14" value="" style="endArrow=none;html=1;rounded=0;entryX=0.11;entryY=0.22;entryDx=0;entryDy=0;entryPerimeter=0;exitX=0.785;exitY=1;exitDx=0;exitDy=0;exitPerimeter=0;" parent="aQcuIbAOPBQ3XKsu57En-1" source="aQcuIbAOPBQ3XKsu57En-3" target="aQcuIbAOPBQ3XKsu57En-13" edge="1">
          <mxGeometry width="50" height="50" relative="1" as="geometry">
            <mxPoint x="1340" y="600" as="sourcePoint" />
            <mxPoint x="1390" y="550" as="targetPoint" />
          </mxGeometry>
        </mxCell>
        <mxCell id="aQcuIbAOPBQ3XKsu57En-15" value="Pages" style="ellipse;whiteSpace=wrap;html=1;" parent="aQcuIbAOPBQ3XKsu57En-1" vertex="1">
          <mxGeometry x="1250" y="560" width="100" height="40" as="geometry" />
        </mxCell>
        <mxCell id="aQcuIbAOPBQ3XKsu57En-16" value="" style="endArrow=none;html=1;rounded=0;exitX=0.222;exitY=0.06;exitDx=0;exitDy=0;exitPerimeter=0;entryX=0.5;entryY=1;entryDx=0;entryDy=0;" parent="aQcuIbAOPBQ3XKsu57En-1" source="aQcuIbAOPBQ3XKsu57En-15" target="aQcuIbAOPBQ3XKsu57En-3" edge="1">
          <mxGeometry width="50" height="50" relative="1" as="geometry">
            <mxPoint x="1160" y="530" as="sourcePoint" />
            <mxPoint x="1210" y="480" as="targetPoint" />
          </mxGeometry>
        </mxCell>
        <mxCell id="aQcuIbAOPBQ3XKsu57En-17" value="Title" style="ellipse;whiteSpace=wrap;html=1;" parent="aQcuIbAOPBQ3XKsu57En-1" vertex="1">
          <mxGeometry x="1390" y="300" width="100" height="40" as="geometry" />
        </mxCell>
        <mxCell id="aQcuIbAOPBQ3XKsu57En-18" value="" style="endArrow=none;html=1;rounded=0;entryX=0;entryY=0.6;entryDx=0;entryDy=0;entryPerimeter=0;exitX=0.962;exitY=0.02;exitDx=0;exitDy=0;exitPerimeter=0;" parent="aQcuIbAOPBQ3XKsu57En-1" source="aQcuIbAOPBQ3XKsu57En-3" target="aQcuIbAOPBQ3XKsu57En-17" edge="1">
          <mxGeometry width="50" height="50" relative="1" as="geometry">
            <mxPoint x="1330" y="370" as="sourcePoint" />
            <mxPoint x="1380" y="320" as="targetPoint" />
          </mxGeometry>
        </mxCell>
        <mxCell id="aQcuIbAOPBQ3XKsu57En-19" value="&lt;u&gt;Book_Id&lt;/u&gt;" style="ellipse;whiteSpace=wrap;html=1;" parent="aQcuIbAOPBQ3XKsu57En-1" vertex="1">
          <mxGeometry x="1170" y="530" width="90" height="40" as="geometry" />
        </mxCell>
        <mxCell id="aQcuIbAOPBQ3XKsu57En-20" value="" style="endArrow=none;html=1;rounded=0;entryX=0.318;entryY=1.027;entryDx=0;entryDy=0;entryPerimeter=0;exitX=0.5;exitY=0;exitDx=0;exitDy=0;" parent="aQcuIbAOPBQ3XKsu57En-1" source="aQcuIbAOPBQ3XKsu57En-19" target="aQcuIbAOPBQ3XKsu57En-3" edge="1">
          <mxGeometry width="50" height="50" relative="1" as="geometry">
            <mxPoint x="1170" y="510" as="sourcePoint" />
            <mxPoint x="1220" y="460" as="targetPoint" />
          </mxGeometry>
        </mxCell>
        <mxCell id="aQcuIbAOPBQ3XKsu57En-21" value="ISBN" style="ellipse;whiteSpace=wrap;html=1;" parent="aQcuIbAOPBQ3XKsu57En-1" vertex="1">
          <mxGeometry x="1290" y="270" width="100" height="40" as="geometry" />
        </mxCell>
        <mxCell id="aQcuIbAOPBQ3XKsu57En-22" value="" style="endArrow=none;html=1;rounded=0;entryX=0.426;entryY=1.02;entryDx=0;entryDy=0;entryPerimeter=0;exitX=0.692;exitY=-0.007;exitDx=0;exitDy=0;exitPerimeter=0;" parent="aQcuIbAOPBQ3XKsu57En-1" source="aQcuIbAOPBQ3XKsu57En-3" target="aQcuIbAOPBQ3XKsu57En-21" edge="1">
          <mxGeometry width="50" height="50" relative="1" as="geometry">
            <mxPoint x="1240" y="360" as="sourcePoint" />
            <mxPoint x="1290" y="310" as="targetPoint" />
          </mxGeometry>
        </mxCell>
        <mxCell id="aQcuIbAOPBQ3XKsu57En-23" value="School" style="rounded=0;whiteSpace=wrap;html=1;" parent="aQcuIbAOPBQ3XKsu57En-1" vertex="1">
          <mxGeometry x="650" y="340" width="120" height="60" as="geometry" />
        </mxCell>
        <mxCell id="aQcuIbAOPBQ3XKsu57En-24" value="&lt;u&gt;idSchool&lt;/u&gt;" style="ellipse;whiteSpace=wrap;html=1;" parent="aQcuIbAOPBQ3XKsu57En-1" vertex="1">
          <mxGeometry x="850" y="340" width="120" height="50" as="geometry" />
        </mxCell>
        <mxCell id="aQcuIbAOPBQ3XKsu57En-25" value="" style="endArrow=none;html=1;rounded=0;entryX=0;entryY=0.5;entryDx=0;entryDy=0;" parent="aQcuIbAOPBQ3XKsu57En-1" target="aQcuIbAOPBQ3XKsu57En-24" edge="1">
          <mxGeometry width="50" height="50" relative="1" as="geometry">
            <mxPoint x="770" y="370" as="sourcePoint" />
            <mxPoint x="820" y="320" as="targetPoint" />
          </mxGeometry>
        </mxCell>
        <mxCell id="aQcuIbAOPBQ3XKsu57En-26" value="has" style="rhombus;whiteSpace=wrap;html=1;" parent="aQcuIbAOPBQ3XKsu57En-1" vertex="1">
          <mxGeometry x="1030" y="360" width="80" height="40" as="geometry" />
        </mxCell>
        <mxCell id="aQcuIbAOPBQ3XKsu57En-27" value="" style="shape=link;html=1;rounded=0;entryX=1;entryY=0.5;entryDx=0;entryDy=0;exitX=0;exitY=0.667;exitDx=0;exitDy=0;exitPerimeter=0;" parent="aQcuIbAOPBQ3XKsu57En-1" source="aQcuIbAOPBQ3XKsu57En-3" target="aQcuIbAOPBQ3XKsu57En-26" edge="1">
          <mxGeometry relative="1" as="geometry">
            <mxPoint x="980" y="420" as="sourcePoint" />
            <mxPoint x="1140" y="420" as="targetPoint" />
          </mxGeometry>
        </mxCell>
        <mxCell id="aQcuIbAOPBQ3XKsu57En-28" value="N" style="resizable=0;html=1;whiteSpace=wrap;align=right;verticalAlign=bottom;" parent="aQcuIbAOPBQ3XKsu57En-27" connectable="0" vertex="1">
          <mxGeometry x="1" relative="1" as="geometry" />
        </mxCell>
        <mxCell id="aQcuIbAOPBQ3XKsu57En-29" value="" style="endArrow=none;html=1;rounded=0;entryX=0.067;entryY=0.466;entryDx=0;entryDy=0;exitX=1;exitY=0.5;exitDx=0;exitDy=0;entryPerimeter=0;" parent="aQcuIbAOPBQ3XKsu57En-1" source="aQcuIbAOPBQ3XKsu57En-24" target="aQcuIbAOPBQ3XKsu57En-26" edge="1">
          <mxGeometry relative="1" as="geometry">
            <mxPoint x="970" y="365" as="sourcePoint" />
            <mxPoint x="1130" y="365" as="targetPoint" />
          </mxGeometry>
        </mxCell>
        <mxCell id="aQcuIbAOPBQ3XKsu57En-30" value="School_Name" style="ellipse;whiteSpace=wrap;html=1;align=center;" parent="aQcuIbAOPBQ3XKsu57En-1" vertex="1">
          <mxGeometry x="770" y="260" width="100" height="40" as="geometry" />
        </mxCell>
        <mxCell id="Hc-xmSTj-cyo68Ct1Yfs-0" value="" style="endArrow=none;html=1;rounded=0;entryX=0;entryY=1;entryDx=0;entryDy=0;exitX=0.84;exitY=0.017;exitDx=0;exitDy=0;exitPerimeter=0;" edge="1" parent="aQcuIbAOPBQ3XKsu57En-1" source="aQcuIbAOPBQ3XKsu57En-23" target="aQcuIbAOPBQ3XKsu57En-30">
          <mxGeometry relative="1" as="geometry">
            <mxPoint x="620" y="320" as="sourcePoint" />
            <mxPoint x="780" y="320" as="targetPoint" />
          </mxGeometry>
        </mxCell>
      </root>
    </mxGraphModel>
  </diagram>
</mxfile>
